<svg id="Layer_1" data-name="Layer 1" xmlns="http://www.w3.org/2000/svg" xmlns:xlink="http://www.w3.org/1999/xlink" viewBox="0 0 141.73 141.73"><defs><style>.cls-1{fill:none;}.cls-2{fill:#a56a4c;}.cls-3{clip-path:url(#clip-path);}.cls-4{fill:#b97850;}.cls-5{fill:#4a3127;}.cls-6{fill:#3a261f;}.cls-7{fill:#d0946b;}.cls-8{fill:#694336;}.cls-9{fill:#5c3c32;}</style><clipPath id="clip-path"><path class="cls-1" d="M-.27,0V142.27H142s-3.9-64.89-3.9-71.85c0-4.67-6.7-3.49-12.25-2.31-2.7.57-5.13,1.15-6.37,1-3.8-.32-7.52-6.72-11.86-7.59-3-.6-14.9-1.28-16.92-4.72-2.38-4-2.31-14.93-2.88-19.69C87.31,32.88,80.75,27,82,21.73S89.44,6.3,85.92,5.59V0Z"/></clipPath></defs><title>keksi_logo</title><g id="Cookie"><path class="cls-2" d="M93.82,55.56c-3.37-3.47-3-12.88-4.74-18.21s-8.2-8.62-6.27-14.28S87,11.62,87,7.27c-8.26,0-11,25.52-11,25.52l8.78,32.83L118,73.18s14.76-5.93,14.82-6.12c-7.94,0-13,1.32-16.15-.22s-5-2.8-8-3.93-11.19-3.59-14.83-7.35"/><g class="cls-3"><path class="cls-4" d="M138.1,71.13A67.24,67.24,0,1,1,70.87,3.9,67.23,67.23,0,0,1,138.1,71.13"/><path class="cls-2" d="M27.59,72.2c0-7.19.83-16,2.85-22.53,2.42-7.84,10-13.21,14.79-19.6,4.65-6.13,7.23-12.24,13.62-16.56,5.79-3.9,13.77-7,20.61-9.07a67.24,67.24,0,1,0-8.59,133.93,68.27,68.27,0,0,0,7.47-.42c-6.85-2.17-16.19-4.79-22-8.84-9-6.3-13.86-18.22-19-27.94s-9.76-17.12-9.76-29"/></g><path class="cls-5" d="M58.42,67C57,69,58.05,77.4,60.33,79.83s12.07,5.89,14.46,4.24,7.52-8.27,6.56-11C80.2,69.72,75.11,63.4,71.21,62.6S60.11,64.79,58.42,67"/><path class="cls-6" d="M71.21,62.6c-3.91-.8-11.1,2.19-12.79,4.44C57,69,58.05,77.4,60.34,79.83c1.49,1.59,6.22,3.63,10,4.38a44.88,44.88,0,0,1-7.12-5.9c-2.08-2.07-1.28-8.19.4-10.78,0,0,5.17-4.74,7.62-4.93"/><path class="cls-5" d="M42.53,48.24c1.72-4.19-2.09-13.05-5.88-14.71s-13.47.25-14.46,4c-1.25,4.75,1.72,15.18,5.69,16,3.74.78,13.18-1.78,14.65-5.33"/><path class="cls-6" d="M28.55,49.86c-1.19-1.07-2.46-10.12-1.79-11.27,1.08-1.87,3.13-5.36,5.51-5.64-4.25.17-9.38,1.91-10.09,4.62-1.24,4.75,1.73,15.18,5.7,16,1.93.4,5.36-.08,8.44-1.13-1.7.34-6.59-1.52-7.77-2.58"/><path class="cls-5" d="M23.37,92.2C25,93,33.21,92,34.27,89.83s2.85-14.11-.71-15.41-17.19-.24-18.49,3.2,5.45,13.16,8.3,14.58"/><path class="cls-6" d="M21.59,84.57C20.8,81.65,24.45,74.15,28,73.89c-5.28.12-12,1.36-12.94,3.73-1.3,3.44,5.46,13.16,8.3,14.58.91.46,3.76.34,6.33-.2-4.19,0-7.31-4.51-8.1-7.43"/><path class="cls-5" d="M56.48,107c-3.76,1.08-6.7,6.22-6.52,9.78s4,9.11,7.59,9.47,10.93-2,12.4-5.1,1.35-10.91-1.78-13c-2.32-1.58-8.25-2.1-11.69-1.11"/><path class="cls-6" d="M57.31,122.77a12.53,12.53,0,0,1-3.54-6.71c-.06-1.71,5-9.11,7.55-9.59a16.42,16.42,0,0,0-4.83.5c-3.77,1.08-6.72,6.22-6.54,9.78s4,9.11,7.6,9.47a16.28,16.28,0,0,0,6.16-1c-.91.28-4.31-.53-6.4-2.48"/><path class="cls-5" d="M107.38,90.37c-4.75-.57-12.56.95-12.92,4.39s1.38,9.84,5.43,10.67,12.54-.1,14.13-2.49-2.68-12.1-6.64-12.57"/><path class="cls-6" d="M99.56,102.78c-1.23-1-2.45-6.48-2-8.06s2.32-3.2,4.84-4.29c-3.9.49-7.72,1.95-8,4.33-.35,3.44,1.38,9.84,5.43,10.67a25.91,25.91,0,0,0,8.78-.17c-3.33.41-7.89-1.53-9.11-2.48"/><path class="cls-5" d="M70.23,37.19A13.21,13.21,0,0,0,80.9,41c3.32-.35,7.47-6.66,6.88-9.38s-5.1-9.58-9.37-9.46-9.09,2.88-9.79,4.76c-1.07,2.83-.27,8.49,1.61,10.26"/><path class="cls-6" d="M80.1,41.07c-5.61-2.17-7.5-7.07-7.44-8.79s2-9.53,5.09-10.07c-4.09.36-8.47,2.94-9.13,4.72-1.07,2.83-.27,8.49,1.61,10.26a13.27,13.27,0,0,0,9.87,3.88"/></g><g id="Binääri"><path id="Zero" class="cls-7" d="M77.12,100.93c-1.32-.68-1.69-1.55-1.1-2.71s1.52-1.36,2.84-.68,1.69,1.54,1.09,2.7S78.43,101.6,77.12,100.93Zm1.06-2.07c-.47-.22-.78-.32-.94,0s.13.58.55.78.84.29,1,0S78.61,99.05,78.18,98.86Z"/><path id="Zero-2" data-name="Zero" class="cls-7" d="M99.75,78.38c-1.48.09-2.24-.48-2.32-1.77s.63-2,2.11-2,2.24.48,2.31,1.78S101.22,78.3,99.75,78.38Zm-.13-2.32c-.52,0-.84.12-.82.45s.4.44.86.4.87-.18.85-.51S100.09,76,99.62,76.06Z"/><path id="Zero-3" data-name="Zero" class="cls-7" d="M110.58,117.79c-.61,1.34-1.47,1.76-2.65,1.23s-1.43-1.46-.83-2.8,1.47-1.77,2.65-1.23S111.18,116.44,110.58,117.79Zm-2.13-1c-.19.48-.27.8,0,.93s.57-.15.74-.58.25-.85,0-1S108.63,116.39,108.45,116.83Z"/><path id="Zero-4" data-name="Zero" class="cls-7" d="M27,102.12c-.63,1.34-1.49,1.74-2.67,1.19s-1.41-1.48-.78-2.81,1.5-1.74,2.67-1.19S27.64,100.79,27,102.12Zm-2.11-1c-.2.48-.29.79,0,.94s.58-.14.76-.58.26-.84,0-1S25.09,100.7,24.9,101.13Z"/><path id="Zero-5" data-name="Zero" class="cls-7" d="M60.12,40.35c-1.13.95-2.08,1-2.92,0s-.67-1.93.46-2.88,2.08-1,2.92,0S61.24,39.4,60.12,40.35Zm-1.5-1.78c-.38.36-.6.6-.39.86s.58.11.93-.21.59-.66.37-.92S59,38.26,58.62,38.57Z"/><path id="Zero-6" data-name="Zero" class="cls-7" d="M20,58.16c1.07,1,1.18,2,.28,2.9s-1.85.87-2.91-.15S16.14,59,17,58,18.88,57.14,20,58.16Zm-1.61,1.68c.39.34.66.53.89.29s.05-.59-.31-.9-.72-.51-1-.27S18,59.53,18.34,59.84Z"/><path id="Zero-7" data-name="Zero" class="cls-7" d="M69.06,13c-1.41-.42-1.94-1.21-1.57-2.46s1.26-1.61,2.67-1.18,1.94,1.22,1.57,2.46S70.47,13.39,69.06,13Zm.67-2.22c-.5-.13-.83-.18-.92.14s.22.55.68.67.87.13,1-.19S70.19,10.85,69.73,10.74Z"/><path id="One" class="cls-8" d="M52.41,93.37c-.3-.31-1.79-1.69-2.61-2.44a.72.72,0,0,1,0-1h0a.72.72,0,0,1,1,0l1.74,1.63a.8.8,0,0,1,.26-.68c.33-.31,1.2.15,1,.72a2.65,2.65,0,0,0-.21.86,1.48,1.48,0,0,1-.27.82A.62.62,0,0,1,52.41,93.37Z"/><path id="One-2" data-name="One" class="cls-8" d="M84.44,123.08c.06.43.45,2.41.66,3.5a.73.73,0,0,1-.57.85h0a.72.72,0,0,1-.84-.58l-.45-2.34a.83.83,0,0,1-.61.4c-.45,0-.88-.83-.38-1.17a2.69,2.69,0,0,0,.69-.56,1.44,1.44,0,0,1,.7-.52A.62.62,0,0,1,84.44,123.08Z"/><path id="One-3" data-name="One" class="cls-8" d="M81.48,55.49c-.08-.43-.53-2.4-.79-3.48a.73.73,0,0,1,.55-.87h0a.72.72,0,0,1,.86.55L82.63,54a.85.85,0,0,1,.59-.42c.45-.06.92.8.42,1.16a2.66,2.66,0,0,0-.66.58,1.4,1.4,0,0,1-.68.54A.63.63,0,0,1,81.48,55.49Z"/><path id="One-4" data-name="One" class="cls-8" d="M119.31,83.81c.14-.41.66-2.37,1-3.44a.72.72,0,0,1,.88-.51h0a.72.72,0,0,1,.51.89l-.63,2.3a.84.84,0,0,1,.73-.09c.42.15.42,1.14-.18,1.21a2.75,2.75,0,0,0-.86.21,1.38,1.38,0,0,1-.86.15A.62.62,0,0,1,119.31,83.81Z"/><path id="One-5" data-name="One" class="cls-9" d="M39.43,23.14c.37.22,2.16,1.17,3.14,1.69a.71.71,0,0,1,.3,1h0a.72.72,0,0,1-1,.3L39.79,25a.84.84,0,0,1-.07.73c-.25.38-1.21.16-1.15-.45a2.51,2.51,0,0,0,0-.88,1.46,1.46,0,0,1,0-.87A.63.63,0,0,1,39.43,23.14Z"/><path id="One-6" data-name="One" class="cls-9" d="M40.93,120.88c.3.3,1.81,1.65,2.64,2.39a.72.72,0,0,1,0,1h0a.72.72,0,0,1-1,0l-1.77-1.6a.82.82,0,0,1-.24.69c-.33.31-1.21-.13-1-.71a2.71,2.71,0,0,0,.21-.86A1.4,1.4,0,0,1,40,121,.62.62,0,0,1,40.93,120.88Z"/><path id="One-7" data-name="One" class="cls-9" d="M49,60c.29.32,1.73,1.75,2.51,2.53a.74.74,0,0,1,0,1h0a.72.72,0,0,1-1,0l-1.68-1.69a.88.88,0,0,1-.28.67c-.35.29-1.2-.19-1-.75a2.72,2.72,0,0,0,.25-.85,1.39,1.39,0,0,1,.29-.82A.63.63,0,0,1,49,60Z"/></g><g id="Crumbs"><path class="cls-4" d="M116.88,36.25c-1.4,1.4-2.45,7.75-.63,9.17s10.67,2.21,13,.39,2.37-11.14,0-12.64S118.14,35,116.88,36.25"/><path class="cls-4" d="M98,15.64c0,3,3.13,7,6.29,7.39,2.58.33,9.17-1.12,10.21-3.18.86-1.7,1.56-5.53-.85-7.67-2.06-1.81-7.2-4.3-10.75-3.95-3.24.32-4.92,4.59-4.9,7.41"/><path class="cls-4" d="M97,45.86c-.45,1.72,4.59,7.54,7.06,6.92s4.67-7.22,3.63-9.07S97.39,44.26,97,45.86"/><path class="cls-5" d="M126,53.28c.07,2,2.25,6.29,4.39,6.29s4.26-2.55,4-4.09-4.8-4.57-6.22-4.69-2.23,1.56-2.19,2.49"/><path class="cls-5" d="M124.7,19.49c1-2,6-1.58,6.09.48s-1.19,7.19-3.72,7.11-3.24-5.77-2.37-7.59"/><path class="cls-5" d="M94.94,28.24c-1.19.56-2.5,6-1.3,6.69S98.7,37.1,100,36.22s2.94-4.86,1.59-6-4.78-2.91-6.65-2"/><path class="cls-6" d="M98,28.42l0-.08a4.36,4.36,0,0,0-3.07-.1c-1.19.56-2.5,6-1.3,6.69a14.26,14.26,0,0,0,4.11,1.46,7.74,7.74,0,0,1-2.93-2.33c-.55-.81.18-4.18.47-4.78A2.27,2.27,0,0,1,98,28.42"/><path class="cls-6" d="M127.67,18.19c-1.27,0-2.54.39-3,1.3-.87,1.82-.16,7.51,2.37,7.59-.65-.19-1.09-1.57-1.37-2.91s.24-5.84,2-6"/><path class="cls-6" d="M132.65,58.67a5.4,5.4,0,0,1-1.89.23c-.67,0-3.4-4.32-3.38-5.08s.65-2.92,1.71-2.75a3.27,3.27,0,0,0-.92-.28c-1.42-.11-2.22,1.56-2.19,2.49.07,2,2.25,6.29,4.38,6.29a3.81,3.81,0,0,0,2.29-.9"/><path class="cls-2" d="M120.07,34.57a11.83,11.83,0,0,0-3.19,1.68c-1.4,1.4-2.45,7.75-.63,9.17a11,11,0,0,0,4.68,1.27c-2.36-.72-3.77-4.57-3.77-6.41a7.81,7.81,0,0,1,2.91-5.71"/><path class="cls-2" d="M103,43.32c-2.77.51-5.74,1.65-6,2.54-.4,1.56,3.71,6.51,6.32,6.94-2.12-.93-3.48-5.92-3.6-6.83s1.36-1.84,3.24-2.65"/><path class="cls-2" d="M104.18,21.49c-1.89-.42-3.38-3.77-3.61-6.47a7.42,7.42,0,0,1,3.94-6.77,8.12,8.12,0,0,0-1.63,0C99.64,8.55,98,12.82,98,15.64c0,3,3.14,7,6.3,7.39A18.24,18.24,0,0,0,111,22c-2.07.65-4.92-.11-6.82-.52"/></g></svg>